<?xml version="1.0" encoding="UTF-8" ?>
<!DOCTYPE svg PUBLIC "-//W3C//DTD SVG 1.1//EN" "http://www.w3.org/Graphics/SVG/1.1/DTD/svg11.dtd">
<svg width="1128pt" height="417pt" viewBox="0 0 1128 417" version="1.1" xmlns="http://www.w3.org/2000/svg">
<g id="#4a1e20ff">
<path fill="#4a1e20" opacity="1.00" d=" M 79.24 76.51 C 90.82 76.48 102.41 76.50 114.00 76.50 C 114.00 102.67 114.00 128.85 114.00 155.02 C 113.55 182.15 109.74 209.07 105.40 235.81 C 106.83 235.33 108.55 234.92 108.47 233.08 C 110.85 221.10 111.43 208.60 116.43 197.29 C 123.16 180.51 136.16 166.14 152.75 158.71 C 169.64 150.95 189.19 150.41 207.03 154.95 C 219.55 158.25 231.64 164.93 239.40 175.54 C 248.12 187.72 252.82 203.16 250.60 218.13 C 249.23 227.95 244.54 237.50 236.67 243.71 C 216.08 260.86 188.38 266.97 162.10 266.52 C 174.96 274.76 187.80 283.03 200.64 291.29 C 204.96 294.03 209.15 297.00 213.71 299.33 C 221.53 303.22 230.26 305.28 239.00 305.26 C 251.43 305.24 263.87 305.25 276.31 305.25 C 262.98 289.36 254.91 268.85 255.21 248.01 C 254.98 229.48 261.24 211.08 272.14 196.15 C 284.09 179.60 301.59 167.26 320.99 161.03 C 344.78 153.30 371.42 154.58 394.26 164.82 C 411.11 172.29 425.84 184.58 435.89 200.06 C 447.05 217.02 452.07 237.95 449.61 258.12 C 447.47 277.25 438.67 295.46 425.34 309.30 C 409.38 326.20 387.19 336.99 364.10 339.46 C 352.77 340.38 341.37 340.41 330.01 340.01 C 288.97 339.99 247.93 340.01 206.89 340.00 C 186.24 318.69 165.41 297.56 144.69 276.31 C 140.22 272.17 136.54 267.18 131.70 263.46 C 126.48 261.78 121.00 261.05 115.76 259.44 C 115.75 286.29 115.75 313.14 115.76 340.00 C 103.58 340.00 91.41 340.00 79.24 340.00 C 79.25 252.17 79.26 164.34 79.24 76.51 M 138.70 199.65 C 126.43 211.99 119.02 228.48 115.76 245.43 C 132.91 248.99 150.63 248.83 167.99 247.07 C 179.57 245.74 191.79 243.64 201.13 236.12 C 208.73 230.23 213.49 220.65 212.93 210.97 C 212.39 201.87 207.66 193.11 200.34 187.67 C 192.07 181.37 180.99 179.17 170.86 181.24 C 158.52 183.74 147.38 190.67 138.70 199.65 M 340.50 191.79 C 319.37 195.45 299.84 210.15 292.73 230.72 C 287.90 244.23 289.06 259.66 295.77 272.33 C 304.39 289.14 321.51 300.74 339.91 304.17 C 352.97 306.54 366.78 305.30 379.03 300.05 C 393.04 294.16 405.04 283.09 411.14 269.08 C 416.38 257.21 417.00 243.38 412.75 231.12 C 408.55 218.77 399.79 208.18 388.82 201.20 C 374.70 192.02 357.02 188.81 340.50 191.79 Z" />
<path fill="#4a1e20" opacity="1.00" d=" M 630.46 110.01 C 640.48 109.99 650.49 110.00 660.51 110.01 C 660.49 125.34 660.50 140.67 660.50 156.00 C 672.33 156.00 684.17 156.00 696.00 156.00 C 696.00 166.06 695.99 176.13 696.00 186.19 C 664.59 185.86 633.70 204.86 620.12 233.23 C 614.61 245.03 611.97 258.70 615.38 271.48 C 618.75 284.84 628.66 296.35 641.42 301.60 C 648.79 304.80 656.96 305.68 664.93 305.18 C 677.10 304.39 689.24 301.96 700.53 297.28 C 700.47 309.90 700.52 322.52 700.50 335.13 C 679.07 340.47 656.34 342.14 634.62 337.56 C 617.46 333.90 600.30 325.84 589.66 311.40 C 578.84 297.06 575.51 278.65 575.05 261.08 C 574.25 245.92 580.24 231.21 588.88 219.02 C 601.51 201.33 619.58 187.37 640.26 180.46 C 628.83 180.33 617.42 180.97 606.00 181.10 C 590.60 181.42 575.17 181.86 559.88 183.86 C 546.13 185.54 532.41 189.85 521.25 198.28 C 507.91 208.10 499.12 223.57 496.91 239.93 C 495.99 245.56 496.28 251.28 496.25 256.96 C 496.25 284.64 496.25 312.32 496.25 340.00 C 483.75 340.00 471.25 340.00 458.75 340.00 C 458.75 278.67 458.75 217.33 458.75 156.00 C 470.42 156.00 482.09 156.00 493.76 156.00 C 493.88 170.35 493.17 184.72 491.07 198.93 C 489.76 208.96 487.76 218.90 486.61 228.96 C 488.42 228.27 489.20 226.69 489.33 224.85 C 492.28 207.37 498.74 190.00 510.45 176.46 C 518.31 167.25 529.13 160.54 540.98 157.95 C 553.79 155.18 567.00 155.72 580.01 156.01 C 593.48 155.98 606.96 156.03 620.43 155.97 C 623.74 140.65 627.12 125.33 630.46 110.01 Z" />
<path fill="#4a1e20" opacity="1.00" d=" M 756.04 166.21 C 772.92 157.61 792.32 154.70 811.09 156.40 C 829.11 157.87 846.98 164.36 860.82 176.16 C 870.46 184.35 877.99 195.06 882.13 207.03 C 886.88 220.61 887.61 235.38 885.44 249.54 C 837.51 248.37 789.58 247.21 741.65 245.95 C 741.72 260.71 747.19 275.70 758.19 285.82 C 772.31 299.03 792.13 303.74 810.93 304.92 C 829.18 306.42 847.69 303.39 864.70 296.71 C 875.52 292.14 885.69 286.19 895.62 279.96 C 905.15 285.51 914.77 291.03 925.13 294.90 C 938.91 299.92 953.19 304.18 967.95 304.71 C 978.74 305.05 989.75 303.86 999.87 299.93 C 1003.84 298.28 1008.03 296.33 1010.49 292.63 C 1013.06 288.84 1014.07 283.48 1011.61 279.40 C 1008.94 275.27 1004.46 272.82 1000.10 270.88 C 987.90 265.69 974.80 263.26 961.89 260.54 C 946.87 257.21 931.68 252.88 918.79 244.21 C 909.91 238.28 902.65 229.48 899.99 219.01 C 896.37 204.76 899.33 188.43 909.45 177.44 C 918.11 167.77 930.44 162.23 942.89 159.30 C 973.56 152.22 1006.36 156.86 1034.50 170.69 C 1034.50 184.25 1034.50 197.82 1034.50 211.38 C 1014.01 197.42 988.89 189.34 963.98 191.67 C 956.38 192.34 948.64 193.49 941.70 196.79 C 937.69 198.72 933.66 202.24 933.74 207.06 C 933.98 212.41 939.02 215.59 943.33 217.73 C 959.95 225.50 978.45 227.24 995.98 232.07 C 1010.03 236.05 1024.26 241.66 1034.84 252.10 C 1042.40 259.41 1047.13 269.51 1048.00 280.00 C 1049.80 296.83 1042.09 314.36 1028.34 324.27 C 1018.88 331.06 1007.72 335.11 996.41 337.55 C 975.10 342.01 952.79 340.21 932.04 333.94 C 919.29 330.02 906.64 325.17 895.62 317.51 C 887.40 321.56 878.97 325.18 870.43 328.48 C 861.21 331.99 851.91 335.54 842.12 337.08 C 819.78 340.89 796.38 341.79 774.43 335.38 C 759.67 331.34 745.80 323.92 734.52 313.56 C 721.60 301.51 712.62 285.37 709.08 268.07 C 705.04 248.43 706.75 227.44 714.97 209.07 C 723.10 190.57 737.97 175.20 756.04 166.21 M 764.43 199.49 C 752.04 206.95 744.06 220.37 741.79 234.48 C 778.52 234.37 815.24 233.80 851.97 233.69 C 851.11 227.45 849.34 221.30 846.30 215.76 C 839.50 202.52 825.79 193.67 811.19 191.65 C 795.37 189.46 778.31 191.08 764.43 199.49 Z" />
</g>
<g id="#ca414cfd">
<path fill="#ca414c" opacity="1.00" d=" M 827.46 95.98 C 828.91 92.07 833.26 90.12 836.17 87.32 C 838.27 90.53 840.27 94.05 840.27 98.02 C 840.60 102.32 838.64 106.24 836.96 110.06 C 840.05 107.72 841.83 104.25 844.28 101.36 C 848.25 99.87 852.54 102.26 856.58 102.74 C 855.35 106.92 853.28 111.04 849.59 113.56 C 846.55 115.92 842.65 116.49 839.08 117.59 C 843.22 118.94 847.64 117.00 851.68 118.24 C 854.22 121.13 855.43 124.89 857.34 128.19 C 853.08 130.03 848.22 130.76 843.74 129.33 C 840.37 128.34 837.72 125.95 834.96 123.92 C 836.44 126.97 838.65 129.54 841.03 131.92 C 842.49 133.08 842.06 135.10 841.45 136.60 C 840.34 139.36 839.04 142.03 837.78 144.72 C 834.39 142.81 831.11 140.38 829.38 136.80 C 827.23 133.06 827.27 128.64 827.32 124.47 C 826.31 126.82 825.29 129.22 825.09 131.81 C 824.72 133.55 824.97 136.05 823.02 136.92 C 819.72 138.31 816.14 138.83 812.70 139.73 C 812.10 135.75 811.99 131.53 813.83 127.84 C 815.45 123.91 818.99 121.37 822.15 118.75 C 819.65 119.55 817.13 120.35 814.92 121.80 C 813.26 122.80 811.25 124.30 809.27 123.21 C 806.29 121.46 803.71 119.11 800.97 117.02 C 803.83 113.80 807.49 111.02 811.85 110.34 C 815.65 109.45 819.47 110.56 823.18 111.40 C 819.79 108.69 815.63 107.39 811.84 105.41 C 811.50 101.53 811.45 97.65 811.49 93.76 C 815.90 93.98 820.49 95.11 823.73 98.30 C 826.63 100.73 828.07 104.30 829.79 107.57 C 829.81 103.55 828.23 99.84 827.46 95.98 Z" />
<path fill="#ca414c" opacity="1.00" d=" M 390.50 97.28 C 392.08 97.25 393.66 97.23 395.25 97.21 C 393.46 98.92 391.66 100.61 389.84 102.27 C 389.04 102.26 387.44 102.24 386.64 102.23 C 387.93 100.58 389.22 98.94 390.50 97.28 Z" />
<path fill="#ca414c" opacity="1.00" d=" M 132.25 102.25 C 139.24 102.24 146.24 102.25 153.25 102.24 C 153.25 103.41 153.25 104.58 153.26 105.76 C 147.50 105.75 141.75 105.76 136.00 105.76 C 136.00 108.67 136.00 111.58 136.00 114.50 C 140.83 114.50 145.67 114.50 150.50 114.49 C 150.50 115.58 150.50 116.67 150.51 117.75 C 145.67 117.76 140.83 117.75 136.00 117.76 C 136.00 120.84 136.00 123.92 136.00 127.00 C 141.92 127.00 147.84 127.00 153.76 127.00 C 153.76 127.81 153.76 129.44 153.76 130.25 C 146.58 130.25 139.41 130.25 132.24 130.25 C 132.25 120.91 132.24 111.58 132.25 102.25 Z" />
<path fill="#ca414c" opacity="1.00" d=" M 161.52 103.54 C 166.40 100.80 172.41 101.95 177.49 103.58 C 177.50 104.43 177.52 106.14 177.53 107.00 C 173.33 105.55 168.36 103.76 164.15 106.15 C 161.95 107.21 160.88 110.37 162.94 112.12 C 167.31 115.39 173.84 114.17 177.72 118.33 C 180.85 121.86 178.98 128.01 174.66 129.64 C 168.83 132.11 162.25 130.30 156.70 127.90 C 157.02 126.86 157.35 125.82 157.67 124.77 C 162.15 126.67 167.24 128.84 172.11 127.06 C 174.72 126.28 176.78 122.69 174.55 120.45 C 170.26 117.01 163.76 118.22 159.72 114.28 C 156.70 111.15 157.78 105.60 161.52 103.54 Z" />
<path fill="#ca414c" opacity="1.00" d=" M 181.50 102.24 C 189.17 102.24 196.83 102.24 204.50 102.24 C 204.50 103.41 204.50 104.58 204.51 105.75 C 201.25 105.76 198.00 105.75 194.76 105.76 C 194.76 113.92 194.75 122.08 194.76 130.25 C 193.50 130.25 192.25 130.25 191.00 130.25 C 191.00 122.09 191.00 113.92 191.00 105.76 C 187.83 105.75 184.66 105.76 181.49 105.75 C 181.49 104.58 181.49 103.41 181.50 102.24 Z" />
<path fill="#ca414c" opacity="1.00" d=" M 208.24 102.25 C 209.49 102.24 210.75 102.24 212.00 102.24 C 212.12 108.52 211.75 114.81 212.16 121.07 C 212.74 125.57 217.75 128.17 221.94 127.30 C 225.56 126.92 228.65 123.84 228.82 120.17 C 229.24 114.20 228.88 108.21 229.00 102.24 C 230.17 102.24 231.33 102.25 232.51 102.25 C 232.33 108.90 232.86 115.59 232.26 122.22 C 230.88 130.13 220.89 132.72 214.38 129.59 C 210.66 128.01 208.27 124.11 208.27 120.10 C 208.16 114.15 208.29 108.20 208.24 102.25 Z" />
<path fill="#ca414c" opacity="1.00" d=" M 238.24 102.25 C 244.63 102.58 251.73 100.98 257.45 104.65 C 265.21 109.65 265.27 122.57 257.69 127.77 C 252.02 131.79 244.69 129.78 238.24 130.24 C 238.25 120.91 238.24 111.58 238.24 102.25 M 242.00 105.76 C 242.00 112.84 242.00 119.92 242.00 127.00 C 246.40 126.84 251.32 127.79 255.19 125.14 C 260.97 121.26 260.99 111.64 255.37 107.60 C 251.53 104.71 246.44 106.03 242.00 105.76 Z" />
<path fill="#ca414c" opacity="1.00" d=" M 268.00 102.24 C 269.25 102.24 270.50 102.24 271.76 102.25 C 271.76 111.58 271.75 120.92 271.76 130.25 C 270.50 130.25 269.25 130.25 268.00 130.25 C 268.00 120.91 268.00 111.58 268.00 102.24 Z" />
<path fill="#ca414c" opacity="1.00" d=" M 285.52 102.67 C 290.51 101.17 296.59 101.77 300.36 105.67 C 306.26 111.20 306.15 121.70 300.24 127.17 C 294.49 132.56 284.18 131.95 279.33 125.64 C 273.44 118.37 276.31 105.63 285.52 102.67 M 288.41 105.53 C 282.30 106.54 278.76 113.37 280.28 119.13 C 281.31 124.39 286.77 128.19 292.08 127.22 C 299.10 126.52 302.98 118.00 300.19 111.85 C 298.49 107.22 293.17 104.50 288.41 105.53 Z" />
<path fill="#ca414c" opacity="1.00" d=" M 325.17 104.19 C 330.92 100.47 338.94 101.39 344.13 105.72 C 343.44 106.65 342.76 107.58 342.08 108.51 C 338.56 106.02 334.06 104.16 329.78 105.83 C 322.86 108.09 320.16 117.63 324.56 123.33 C 327.76 127.85 334.93 128.77 339.08 125.04 C 341.40 123.30 342.08 120.37 342.95 117.78 C 339.81 117.75 336.67 117.75 333.53 117.76 C 333.52 116.95 333.49 115.32 333.47 114.51 C 338.81 114.49 344.15 114.50 349.49 114.49 C 349.50 115.31 349.51 116.94 349.52 117.75 C 348.77 117.75 347.29 117.74 346.55 117.74 C 345.87 120.91 345.09 124.27 342.74 126.67 C 337.23 132.72 326.33 131.99 321.51 125.46 C 316.60 119.00 318.27 108.58 325.17 104.19 Z" />
<path fill="#ca414c" opacity="1.00" d=" M 353.00 102.25 C 358.39 102.44 363.90 101.69 369.22 102.88 C 373.80 103.91 376.30 109.37 374.42 113.60 C 373.56 116.38 370.81 117.71 368.47 119.04 C 370.79 122.77 373.13 126.49 375.44 130.23 C 374.07 130.24 372.70 130.25 371.33 130.26 C 369.15 126.67 366.93 123.11 364.77 119.52 C 362.10 119.50 359.43 119.50 356.76 119.50 C 356.75 123.08 356.75 126.67 356.76 130.26 C 355.50 130.25 354.25 130.25 353.00 130.25 C 353.00 120.92 353.00 111.58 353.00 102.25 M 356.76 105.76 C 356.75 109.34 356.75 112.92 356.76 116.50 C 360.67 116.35 364.84 117.08 368.55 115.49 C 372.02 113.72 372.15 108.15 368.52 106.50 C 364.78 105.09 360.65 105.98 356.76 105.76 Z" />
<path fill="#ca414c" opacity="1.00" d=" M 403.75 102.24 C 410.67 102.25 417.58 102.24 424.50 102.24 C 424.50 103.41 424.50 104.58 424.50 105.76 C 418.84 105.75 413.17 105.76 407.50 105.75 C 407.50 108.84 407.50 111.92 407.50 115.00 C 411.50 115.00 415.50 115.00 419.50 115.00 C 419.50 115.88 419.50 117.63 419.50 118.50 C 415.50 118.50 411.50 118.50 407.50 118.50 C 407.50 122.42 407.50 126.33 407.50 130.25 C 406.56 130.25 404.69 130.25 403.75 130.25 C 403.75 120.91 403.75 111.58 403.75 102.24 Z" />
<path fill="#ca414c" opacity="1.00" d=" M 428.49 102.26 C 429.74 102.25 430.99 102.24 432.25 102.23 C 432.25 111.57 432.25 120.91 432.25 130.25 C 431.31 130.25 429.44 130.25 428.50 130.25 C 428.49 120.92 428.50 111.59 428.49 102.26 Z" />
<path fill="#ca414c" opacity="1.00" d=" M 442.08 105.11 C 447.15 100.97 454.38 101.37 460.22 103.48 C 460.10 104.39 459.85 106.21 459.73 107.11 C 455.22 105.10 449.66 104.26 445.37 107.26 C 439.40 110.89 438.80 120.43 444.35 124.70 C 449.31 128.66 456.42 127.65 461.58 124.62 C 461.55 125.59 461.48 127.53 461.44 128.50 C 455.49 131.49 447.81 131.88 442.26 127.82 C 434.94 122.66 435.03 110.46 442.08 105.11 Z" />
<path fill="#ca414c" opacity="1.00" d=" M 472.39 102.66 C 478.09 100.86 485.10 102.19 488.72 107.26 C 493.15 113.27 492.47 122.81 486.59 127.65 C 480.42 132.81 469.77 131.58 465.47 124.58 C 460.63 117.20 463.61 105.46 472.39 102.66 M 475.39 105.51 C 466.99 106.76 464.16 118.39 469.80 124.17 C 474.80 129.69 485.27 127.60 487.30 120.26 C 490.47 112.84 483.48 103.56 475.39 105.51 Z" />
<path fill="#ca414c" opacity="1.00" d=" M 377.61 130.50 C 380.59 121.48 383.73 112.51 386.71 103.50 C 388.20 103.50 389.70 103.50 391.20 103.50 C 394.34 112.37 397.23 121.33 400.37 130.21 C 399.37 130.23 397.36 130.27 396.36 130.30 C 395.38 127.54 394.46 124.78 393.53 122.02 C 390.45 122.00 387.37 122.00 384.29 122.00 C 383.41 124.63 382.67 127.31 381.56 129.85 C 380.26 130.19 378.95 130.40 377.61 130.50 M 385.14 118.99 C 387.66 119.00 390.19 119.00 392.72 119.00 C 391.37 115.05 390.03 111.10 388.87 107.09 C 387.81 111.11 386.47 115.05 385.14 118.99 Z" />
</g>
</svg>
